<?xml version="1.0" encoding="utf-8"?>
<!-- Generator: Adobe Illustrator 26.5.0, SVG Export Plug-In . SVG Version: 6.00 Build 0)  -->
<svg version="1.1" id="Layer_1" xmlns="http://www.w3.org/2000/svg" xmlns:xlink="http://www.w3.org/1999/xlink" x="0px" y="0px"
	 viewBox="0 0 720 720" style="enable-background:new 0 0 720 720;" xml:space="preserve">
<style type="text/css">
	.st0{fill:#6AFF52;}
	.st1{fill:url(#SVGID_1_);}
</style>
<g>
	<path class="st0" d="M360,2.7C162.7,2.7,2.7,162.7,2.7,360s160,357.3,357.3,357.3s357.3-160,357.3-357.3S557.3,2.7,360,2.7z
		 M598.4,598.4C534.7,662,450,697.1,360,697.1S185.3,662,121.6,598.4C58,534.7,22.9,450,22.9,360S58,185.3,121.6,121.6
		C185.3,58,270,22.9,360,22.9S534.7,58,598.4,121.6C662,185.3,697.1,270,697.1,360S662,534.7,598.4,598.4z"/>
	<radialGradient id="SVGID_1_" cx="360" cy="360" r="337.1" gradientUnits="userSpaceOnUse">
		<stop  offset="0" style="stop-color:#6AFF52"/>
		<stop  offset="0.3726" style="stop-color:#69FD51"/>
		<stop  offset="0.5069" style="stop-color:#66F64F"/>
		<stop  offset="0.6026" style="stop-color:#61EB4B"/>
		<stop  offset="0.68" style="stop-color:#5ADA46"/>
		<stop  offset="0.7463" style="stop-color:#51C43F"/>
		<stop  offset="0.805" style="stop-color:#46A836"/>
		<stop  offset="0.8581" style="stop-color:#39882C"/>
		<stop  offset="0.9069" style="stop-color:#296220"/>
		<stop  offset="0.9523" style="stop-color:#173712"/>
		<stop  offset="0.9926" style="stop-color:#040903"/>
		<stop  offset="1" style="stop-color:#000000"/>
	</radialGradient>
	<path class="st1" d="M598.4,121.6C534.7,58,450,22.9,360,22.9S185.3,58,121.6,121.6C58,185.3,22.9,270,22.9,360
		S58,534.7,121.6,598.4C185.3,662,270,697.1,360,697.1s174.7-35.1,238.4-98.7C662,534.7,697.1,450,697.1,360S662,185.3,598.4,121.6z
		"/>
	<path d="M539.6,168.9c13.8,11.9,28.5-0.5,28-11.9c-1.3-21.8-34.5-20-32.2,2.8c-20.5,8-41.5,21.8-58,43.6
		c-56-51.1-167.8-60.2-235.5,0c-15.5-20-34.5-35-57.5-43.3c1.3-12.5-7.8-19.1-16.5-18.6c-7.8,0.3-15.3,5.7-15.5,16.6
		c0.5,17.1,20.2,19.2,27.5,11.1c10.1,9.4,33.2,29.8,38.3,55.2c-41.8,49.8-53.7,104-45.7,161c-17.4,33.2-14.8,75.7,30.8,108.9
		c-2.8,0-5.9-0.5-9.9-1.6c3.1,4.7,5.5,10.6,8.6,15c3.4,4.7,9.6,10.1,12.7,14.8c127.3,175.6,161.5,175.8,289.6,2.6
		c4.4-5.9,10.1-10.9,15.3-17.7c2.6-3.1,5.7-9.6,8-14c-2.3,0.3-5.9,1.1-10.1,0.5c30.3-15.5,54.4-55.7,30.3-108.7
		c10.9-76.5-15.8-122.1-46.6-161.2C505.7,203.9,520.7,184.8,539.6,168.9z"/>
	<g>
		
			<image style="overflow:visible;" width="380" height="210" xlink:href="68355079A656FA64.png"  transform="matrix(1 0 0 1 170 342)">
		</image>
		<g>
			<path class="st0" d="M233.2,393.1c8.3-5.5,18.4-5.2,26.9-5.2c29.6,1.6,58.6,21.3,70.8,48.5c7.2,16.3,12.2,54.7,8.3,63.8
				c-2.6,5.7-3.6,5.9-19.7,5.9c-33,0.3-81.6-18.9-98-55.7C213.5,432.5,210.7,408.4,233.2,393.1z M499,450.3
				c-16.3,36.8-65,56-98,55.7c-16.1,0-17.1-0.2-19.7-5.9c-3.9-9.1,1.1-47.4,8.3-63.8c12.2-27.2,41.2-46.9,70.8-48.5
				c8.6,0,18.6-0.3,26.9,5.2C509.8,408.4,507,432.5,499,450.3z"/>
		</g>
	</g>
	<g>
		
			<image style="overflow:visible;opacity:0.6;" width="380" height="210" xlink:href="68355079A656FA65.png"  transform="matrix(1 0 0 1 170 342)">
		</image>
		<g>
			<path class="st0" d="M233.2,393.1c8.3-5.5,18.4-5.2,26.9-5.2c29.6,1.6,58.6,21.3,70.8,48.5c7.2,16.3,12.2,54.7,8.3,63.8
				c-2.6,5.7-3.6,5.9-19.7,5.9c-33,0.3-81.6-18.9-98-55.7C213.5,432.5,210.7,408.4,233.2,393.1z M499,450.3
				c-16.3,36.8-65,56-98,55.7c-16.1,0-17.1-0.2-19.7-5.9c-3.9-9.1,1.1-47.4,8.3-63.8c12.2-27.2,41.2-46.9,70.8-48.5
				c8.6,0,18.6-0.3,26.9,5.2C509.8,408.4,507,432.5,499,450.3z"/>
		</g>
	</g>
</g>
</svg>
