<?xml version="1.0" encoding="utf-8"?>
<!-- Generator: Adobe Illustrator 21.1.0, SVG Export Plug-In . SVG Version: 6.00 Build 0)  -->
<svg version="1.1" id="Livello_1" xmlns="http://www.w3.org/2000/svg" xmlns:xlink="http://www.w3.org/1999/xlink" x="0px" y="0px"
	 viewBox="0 0 855 168" style="enable-background:new 0 0 855 168;" xml:space="preserve">
<style type="text/css">
	.st0{fill:#FCFCFC;}
	.st1{enable-background:new    ;}
</style>
<g>
	<path class="st0" d="M175.4,9.2c0.5,0,0.8,0.1,1.3,0.1c18.9,1.1,35.4,7.9,49.2,20.8c9.5,8.8,16,19.5,20.5,31.5
		c2.8,7.3,8.3,11.8,16.2,12.9c6.4,0.8,12.8,1.4,19.2,2.2c8.9,1.2,17.9,2.4,26.5,5.1c1.5,0.5,3.1,1.1,4.5,1.8
		c0.8,0.4,1.5,0.9,2.1,1.5c1.1,1.1,1.2,2.2,0,3.3c-0.9,0.8-2.1,1.5-3.3,2.1c-3.6,1.7-7.3,2.6-11.2,3.3c-5.1,0.9-10.3,1.8-15.4,2.6
		c-3.6,0.5-7.2,0.8-10.8,1.3c-3.8,0.4-7.6,0.8-11.4,1.2c-2.6,0.2-5.3,0.4-7.9,0.6c-3.7,0.2-7.2,0.6-10.9,0.8
		c-3.6,0.2-7.1,0.4-10.7,0.6c-4,0.2-8,0.4-12.1,0.5c-3.2,0.1-6.5,0.2-9.7,0.4c-4.7,0.1-9.3,0.2-14.1,0.4c-4.1,0.1-8.3,0.1-12.5,0.1
		c-7.3,0-14.8,0.1-22.1,0.1c-4.5,0-8.9-0.1-13.4-0.1c-2.6,0-5.2-0.1-7.7-0.1c-3.9-0.1-7.8-0.2-11.7-0.4c-3.1-0.1-6.3-0.2-9.3-0.4
		c-3.7-0.1-7.2-0.4-10.9-0.5c-3.7-0.2-7.3-0.5-10.9-0.7c-3.1-0.2-6.2-0.4-9.3-0.7c-4-0.4-8.2-0.7-12.2-1.1
		c-4.1-0.4-8.2-0.8-12.3-1.3c-8.4-1.1-16.7-2.1-24.9-4.4c-2.4-0.7-4.7-1.7-7.1-2.5C32.3,90,31.6,89.6,31,89
		c-1.3-1.1-1.3-2.4-0.1-3.6c0.6-0.6,1.4-1.1,2.1-1.4c3.3-1.7,7-2.6,10.5-3.4c8.2-1.9,16.4-3,24.7-3.9c5-0.6,9.9-0.9,14.9-1.5
		c6.5-0.8,11.4-4.4,14.6-10.1c1.2-2,1.9-4.3,2.7-6.4c8.4-20.6,22.5-35.4,42.8-43.8c8.3-3.4,17-5.2,26-5.6c0.2,0,0.5-0.1,0.7-0.1
		C171.8,9.2,173.6,9.2,175.4,9.2z M187,85.7c5.7-0.2,10.9-0.5,16.1-0.8c5.2-0.4,10.3-0.7,15.5-1.2c3.1-0.2,5.4-2.5,6-5.6
		c0.5-2.4,0-4.7-0.6-7.1c-2.7-11.5-8.6-21.1-17.6-28.6c-9.1-7.6-19.8-11.6-31.7-12.1c-4.6-0.2-9.2,0.2-13.8,1.3
		c-9.6,2.2-17.9,6.7-25,13.6c-7,6.9-11.7,15-14.2,24.4c-0.7,2.8-1.3,5.8-0.8,8.8c0.6,3.2,2.4,5,5.3,5.2c2.7,0.2,5.4,0.5,8.2,0.6
		c4.9,0.4,9.7,0.6,14.6,0.8c5.9,0.2,11.8,0.5,17.6,0.5C173.6,85.7,180.4,85.7,187,85.7z"/>
	<path class="st0" d="M173.6,160.9c-12.5,0.1-24.4-2.5-35.5-8.3c-16.2-8.4-28-20.9-35.5-37.6c-0.5-0.9-0.7-2-0.8-3
		c-0.2-2.4,1.7-4,4.3-4c3.8,0,7.7,0.2,11.5,0.5c1.4,0.1,2.8,0.2,4.1,0.5c2.8,0.7,5,2.4,6.7,4.7c8,10.9,18.1,18.9,31.5,21.9
		c18.9,4.3,35.6-0.2,49.6-13.7c2.2-2.1,4-4.7,6-7.1c2.2-2.7,4.7-5.3,8.4-6c1.8-0.4,3.7-0.4,5.4-0.5c3.2-0.1,6.3-0.4,9.5-0.4
		c1.9,0,3.9,1.1,4.3,3c0.1,0.5,0.1,0.9,0,1.3c-0.5,2.6-1.7,5-2.8,7.3c-7.7,14.7-19.1,25.9-33.8,33.4
		C196.2,158.2,185.2,160.7,173.6,160.9z"/>
</g>
<g>
	<g class="st1">
		<path class="st0" d="M445,69.3c0,3.1,2,5.5,5.8,7.3c3.8,1.7,8.7,3.4,14.5,4.8c5.5,1.4,11.4,3.1,16.9,5.1c5.5,2,10.4,5.8,14.5,10.8
			c3.8,5.1,5.8,11.4,5.8,19.1c0,11.4-4.1,20.5-12.8,26.3s-19.5,9.4-31.9,9.4c-22.9,0-38.4-9-46.8-26.6l24.9-14.2
			c3.1,9.7,10.4,14.5,21.8,14.5c10.4,0,15.2-3.1,15.2-9.7c0-3.1-2-5.5-5.8-7.3c-3.8-1.7-8.7-3.4-14.5-5.1
			c-5.5-1.4-11.4-3.4-16.9-5.5c-5.5-2-10.4-5.8-14.5-10.8c-3.8-4.1-5.8-10.1-5.8-17.2c0-11.1,4.1-19.8,12.1-25.9
			c8-6.1,18.4-9.4,30.2-9.4c9,0,17.2,2,24.9,6.3c7.3,4.1,13.1,10.1,17.6,17.6l-24.6,13.5c-3.4-7.7-9.4-11.4-18.1-11.4
			c-3.8,0-7,0.7-9.4,2.4C446.3,64.2,445,66.2,445,69.3z"/>
		<path class="st0" d="M521.1,140.3V46.4c0-4.8,3.8-8.7,8.7-8.7h11.1c4.8,0,8.7,3.8,8.7,8.7v93.9c0,4.8-3.8,8.7-8.7,8.7h-11.1
			C524.8,149,521.1,145.2,521.1,140.3z"/>
		<path class="st0" d="M638.8,44v14.5c0,4.4-3.1,8.4-7.7,8.7c-5.8,0.3-16.6-1.4-21.5,1.7c-7,4.4-4.8,15.9-4.8,26.6v44.7
			c0,4.8-3.8,8.7-8.7,8.7h-11.1c-4.8,0-8.7-3.8-8.7-8.7V81.4c0,0-2-43.3,33.3-44h24.6C633.6,37.5,639.2,37,638.8,44z"/>
		<path class="st0" d="M655.4,141.3V45c0-4.1,3.4-7.7,7.7-7.7h13.5c4.1,0,7.7,3.4,7.7,7.7v96.3c0,4.1-3.4,7.7-7.7,7.7h-13.5
			C659,149,655.4,145.6,655.4,141.3z"/>
		<path class="st0" d="M805.8,135.2c-11.4,11.4-25.3,16.9-42,16.9c-16.6,0-30.5-5.5-42-16.9c-11.4-11.4-16.9-25.3-16.9-42
			c0-16.6,5.5-30.5,16.9-42s25.3-16.9,42-16.9c16.7,0,30.5,5.5,42,16.9c11.4,11.4,17.2,25.4,17.2,42S817.2,123.7,805.8,135.2z
			 M742.1,115.4c5.8,5.8,12.8,8.7,21.5,8.7c8.7,0,15.9-2.7,21.5-8.7c5.8-5.8,8.7-13.1,8.7-22.2c0-9-2.7-16.2-8.7-22.2
			c-6-6-13.1-8.7-21.5-8.7S747.7,65,742.1,71c-5.8,5.8-8.7,13.1-8.7,22.2C733.4,102.2,736.5,109.6,742.1,115.4z"/>
	</g>
	<path class="st0" d="M436.3,114l-23.6,12.8c-1,0.7-1.7-1.4-2.4-2.4l0,0c-0.7-1-0.3-2.4,0.7-3.1l21.2-12.1c1-0.7,2.4-0.3,3.1,0.7
		l0,0C435.9,112.3,438,115.4,436.3,114z"/>
	<path class="st0" d="M499.2,61.4l-20.5,11.1c-1,0.7-2.4,0.3-3.1-1l-1-2.4c-0.7-1,0.7-1,1.7-1.4l20.5-11.1c1-0.7,2.4-0.3,3.1,1
		l0.3,0.7C500.9,59.2,500.6,60.6,499.2,61.4z"/>
</g>
</svg>
